# xmcd
#
# Track frame offsets:
#  150
#  11146
#  26174
#  41195
#  60539
#  77264
#  96632
#  123104
#  138248
#  149993
#
# Disc length: 2108 seconds
#
# Revision: 0
# Processed by: cddbd v1.5.1PL2 Copyright (c) Steve Scherf et al.
# Submitted via: Collectorz.com_Music_Collector 6.11
#
DISCID=8e083a0a
DTITLE=Burnside, Duwayne - Under Pressure
DYEAR=2005
DGENRE=Blues
TTITLE0=Pressure
TTITLE1=Why You Act Like That
TTITLE2=Tribute
TTITLE3=Gotta' Pretty Woman
TTITLE4=She Threw My Clothes Out
TTITLE5=Treatin' Me So Bad
TTITLE6=Bad Luck City
TTITLE7=King
TTITLE8=I Got The Blues
TTITLE9=Hard Candy Part II
EXTD=
EXTT0=
EXTT1=
EXTT2=
EXTT3=
EXTT4=
EXTT5=
EXTT6=
EXTT7=
EXTT8=
EXTT9=
PLAYORDER=
